<?xml version="1.0" encoding="UTF-8" standalone="no"?>
<svg
   xmlns:dc="http://purl.org/dc/elements/1.1/"
   xmlns:cc="http://creativecommons.org/ns#"
   xmlns:rdf="http://www.w3.org/1999/02/22-rdf-syntax-ns#"
   xmlns:svg="http://www.w3.org/2000/svg"
   xmlns="http://www.w3.org/2000/svg"
   xmlns:sodipodi="http://sodipodi.sourceforge.net/DTD/sodipodi-0.dtd"
   xmlns:inkscape="http://www.inkscape.org/namespaces/inkscape"
   version="1.0"
   width="624.000000pt"
   height="607.000000pt"
   viewBox="0 0 624.000000 607.000000"
   preserveAspectRatio="xMidYMid meet"
   id="svg18"
   sodipodi:docname="sroka7.svg"
   inkscape:version="0.92.0 r15299">
  <defs
     id="defs22" />
  <sodipodi:namedview
     pagecolor="#ffffff"
     bordercolor="#666666"
     borderopacity="1"
     objecttolerance="10"
     gridtolerance="10"
     guidetolerance="10"
     inkscape:pageopacity="0"
     inkscape:pageshadow="2"
     inkscape:window-width="1600"
     inkscape:window-height="853"
     id="namedview20"
     showgrid="false"
     inkscape:zoom="0.58319605"
     inkscape:cx="394.92283"
     inkscape:cy="407.82504"
     inkscape:window-x="-4"
     inkscape:window-y="-4"
     inkscape:window-maximized="1"
     inkscape:current-layer="g16" />
  <metadata
     id="metadata2">
Created by potrace 1.13, written by Peter Selinger 2001-2015
<rdf:RDF>
  <cc:Work
     rdf:about="">
    <dc:format>image/svg+xml</dc:format>
    <dc:type
       rdf:resource="http://purl.org/dc/dcmitype/StillImage" />
    <dc:title></dc:title>
  </cc:Work>
</rdf:RDF>
</metadata>
  <g
     transform="translate(0.000000,607.000000) scale(0.100000,-0.100000)"
     fill="#000000"
     stroke="none"
     id="g16">
    <path
       d="m 4043.0771,5983.3375 c -1.2438,-6.2191 -31.0958,-39.8026 -63.4353,-74.6299 -34.8272,-36.0709 -78.3613,-101.994 -101.994,-154.2348 l -42.2902,-92.0435 7.4629,-143.0403 c 6.2192,-116.9201 2.4876,-160.4541 -14.926,-228.8647 -12.4382,-47.2656 -26.1204,-90.7997 -31.0957,-95.7749 -18.6574,-21.1452 -55.9724,218.914 -68.4106,439.0719 -3.7315,64.6791 -14.926,149.2596 -24.8766,186.5744 -17.4136,68.4107 -17.4136,67.1669 -11.1945,-74.6297 11.1945,-243.7907 24.8766,-378.1243 43.5341,-411.7077 4.9752,-11.1945 7.4629,-22.389 4.9752,-26.1204 -3.7314,-2.4877 0,-24.8766 7.463,-48.5095 7.4631,-23.6327 14.926,-53.4846 18.6575,-67.1667 12.4383,-68.4106 31.0958,-123.1392 83.3366,-235.0838 43.5341,-94.5312 53.4847,-129.3584 44.7779,-146.772 -16.1698,-31.0957 -44.7779,-27.3642 -63.4353,7.463 -13.6821,24.8766 -134.3337,164.1855 -215.1827,248.7659 -13.682,14.9261 -38.5586,44.7779 -53.4846,67.1669 -16.1698,22.3889 -33.5834,37.3148 -38.5587,33.5834 -14.9259,-8.7068 -4.9754,492.5566 11.1945,588.3315 17.4136,106.9694 59.7038,184.0868 97.0187,180.3553 24.8766,-3.7314 26.1204,0 13.6821,22.389 -9.9507,18.6575 -21.1452,23.6327 -39.8025,18.6575 -14.926,-3.7316 -31.0958,-7.4631 -36.0711,-7.4631 -4.9754,0 -23.6328,-27.3642 -41.0464,-62.1914 -37.3149,-73.386 -54.7285,-185.3307 -54.7285,-360.7107 -1.2438,-72.1421 -3.7315,-144.2843 -7.463,-160.4541 -2.4876,-17.4136 0,-69.6544 7.463,-116.92 7.463,-47.2655 9.9506,-89.5558 4.9753,-93.2872 -24.8766,-24.8766 -177.8677,248.7659 -293.5439,526.14 -22.3889,54.7286 -53.4846,113.1885 -68.4106,129.3583 l -28.608,29.852 -46.0218,-98.2626 -44.7778,-98.2626 13.682,-99.5063 c 7.463,-54.7286 27.3643,-141.7966 43.5341,-192.7937 32.3396,-100.7502 55.9724,-251.2536 36.0711,-230.1085 -6.2192,7.463 -47.2655,54.7284 -90.7996,105.7256 -43.5341,50.997 -104.4818,124.3829 -136.8213,161.6978 -33.5834,37.3149 -69.6545,80.8489 -82.0928,97.0187 -22.3889,26.1204 -24.8766,27.3643 -52.2409,8.7068 -84.5803,-60.9476 -83.3365,-190.3059 3.7316,-364.4421 29.8519,-59.7039 53.4847,-109.4571 52.2408,-110.7009 -1.2438,-1.2438 -53.4847,28.6081 -114.4323,64.6792 -62.1915,37.3149 -118.1639,67.1668 -126.8707,68.4106 -7.463,0 -21.1451,-29.8518 -29.8519,-64.6792 -7.4629,-36.071 -22.389,-82.0927 -31.0958,-103.2378 -13.6821,-32.3396 -11.1944,-42.2902 16.1699,-90.7995 17.4136,-28.6082 28.608,-55.9724 24.8766,-59.704 -3.7315,-3.7314 -34.8272,6.2193 -69.6545,21.1452 -36.0711,14.9259 -65.923,24.8766 -67.1669,22.3889 -1.2438,-2.4876 -24.8765,-50.997 -50.997,-106.9693 -47.2654,-98.2626 -48.5093,-101.9941 -27.3642,-133.0898 l 19.9013,-32.3397 h -41.0464 -42.2903 l -24.8766,-99.5063 -24.8765,-98.2626 34.8272,-33.5833 c 39.8026,-37.315 44.7779,-54.7286 19.9013,-54.7286 -8.7068,0 -44.7779,-8.7068 -79.6051,-18.6574 -58.46,-17.4137 -65.9231,-23.6328 -84.5804,-73.386 -16.1699,-42.2902 -17.4136,-60.9477 -7.4631,-79.6052 21.1452,-38.5586 17.4136,-46.0216 -34.8272,-80.8488 -41.0464,-27.3643 -50.997,-42.2903 -57.2161,-88.3119 -6.2192,-41.0465 -3.7316,-62.1915 13.682,-88.312 21.1452,-32.3396 21.1452,-33.5834 -16.1697,-70.8983 l -38.5587,-37.3149 27.3642,-60.9477 c 17.4136,-39.8025 36.0711,-63.4353 54.7285,-68.4106 36.0711,-9.9506 34.8273,-14.9259 -11.1945,-62.1915 -33.5834,-34.8272 -37.3148,-42.2902 -23.6327,-68.4106 8.7068,-16.1699 29.8519,-41.0465 46.0217,-54.7285 26.1204,-22.389 28.6081,-29.852 17.4136,-59.7039 -12.4383,-31.0958 -9.9506,-38.5587 31.0957,-73.386 23.6329,-21.1451 54.7286,-59.7038 67.1669,-85.8242 34.8272,-65.923 82.0927,-101.9941 113.1885,-82.0928 18.6575,11.1945 26.1204,9.9507 39.8025,-8.7068 13.6822,-18.6575 26.1204,-22.3889 59.7039,-14.9259 55.9723,11.1945 39.8025,-2.4877 -93.2873,-79.6051 -106.9694,-60.9477 -151.7471,-80.849 -424.146,-180.3554 -68.4106,-26.1205 -185.3305,-73.3859 -261.2042,-108.2132 -139.309,-62.1915 -155.4787,-65.923 -403.0009,-110.7009 -87.0681,-14.9259 -152.9911,-33.5834 -170.4047,-47.2655 -16.1698,-12.4383 -54.72857,-27.3642 -87.06809,-32.3396 -55.97237,-7.463 -55.97237,-8.7068 -48.50935,-47.2655 4.97534,-22.389 9.95058,-48.5094 13.68214,-59.7038 11.19448,-43.534 114.4323,-62.1915 350.76,-64.6792 124.383,-1.2438 226.3771,-3.7315 226.3771,-6.2191 0,-9.9506 -92.0435,-145.5281 -115.6762,-169.1609 -55.9724,-57.2162 -256.229,-276.1303 -289.8124,-318.4205 -18.6574,-23.6327 -72.14213,-82.0928 -118.1638,-130.6021 C 878.77387,1739.39 855.14114,1703.3189 825.28918,1624.9576 784.24285,1520.4759 753.1471,1466.9912 662.34754,1342.6082 571.54796,1215.7376 504.38114,1085.1354 475.77306,969.45927 460.8471,912.24312 444.67731,856.27076 438.45821,845.07628 407.36246,786.61625 305.36841,424.66175 310.34374,389.83452 c 3.73148,-24.8766 -3.73149,-57.21618 -19.90129,-89.55575 -14.92595,-28.60808 -26.12042,-58.46 -26.12042,-67.16682 0,-24.87659 67.16682,-146.771914 79.60511,-143.040427 4.97532,2.487662 29.85191,55.972347 52.24086,120.651497 23.63276,64.67915 59.70378,145.52809 82.09272,180.35533 54.72851,87.06809 88.31192,159.21025 121.89532,261.20433 28.60808,88.31189 31.09575,88.31189 54.72848,16.16971 4.97534,-18.65741 11.19447,-18.65741 72.14218,-2.48757 36.07099,8.7068 67.16673,17.4136 69.6544,17.4136 1.24389,0 13.68215,-24.87661 27.36429,-55.97237 17.41361,-41.04638 31.09575,-55.97234 49.75324,-55.97234 43.534,0 94.53102,33.5834 123.1391,80.84897 22.38897,39.80254 23.63287,49.75313 11.19447,109.45705 -22.38895,99.50637 -17.4136,164.18553 27.3643,319.66427 28.6081,101.994 57.2162,169.1609 97.0187,233.8399 49.7533,79.6052 60.9477,89.5558 94.5311,89.5558 32.3396,0 52.2408,14.9259 119.4077,89.5558 160.4541,177.8677 657.986,656.7421 864.4617,833.366 68.4107,58.46 157.9664,144.2843 197.769,190.3059 l 74.6297,83.3367 34.8273,-41.0465 c 33.5835,-39.8025 34.8272,-48.5093 32.3396,-133.0897 -3.7315,-75.8737 -1.2438,-90.7996 17.4136,-97.0187 11.1945,-3.7316 37.3149,-21.1452 57.2161,-39.8026 33.5834,-31.0957 36.0711,-39.8025 31.0958,-97.0188 l -6.2192,-62.1915 63.4354,-16.1697 c 60.9476,-14.926 64.6792,-18.6575 58.46,-49.7532 -4.9753,-21.1452 2.4876,-49.7533 21.1451,-82.0928 26.1204,-46.0217 32.3395,-49.7532 87.0681,-53.4847 55.9724,-3.7314 59.7038,-6.2191 98.2626,-72.1422 l 41.0463,-67.1667 h 63.4354 c 44.7778,0 73.3859,7.4629 95.7748,24.8765 42.2902,33.5834 46.0218,32.3397 46.0218,-21.145 0,-60.9477 13.6822,-80.849 64.6792,-98.2626 33.5833,-11.1945 53.4847,-9.9506 114.4323,12.4384 l 72.1421,26.1204 21.1451,-27.3643 c 11.1945,-14.926 29.852,-41.0464 42.2902,-58.4601 14.926,-22.3888 37.3149,-33.5833 77.1174,-39.8025 48.5095,-6.2192 63.4354,-3.7315 103.238,24.8766 26.1204,17.4136 50.997,32.3396 55.9723,32.3396 4.9753,0 17.4136,-22.3889 28.6081,-49.7532 12.4383,-32.3395 29.8519,-52.2408 47.2656,-55.9724 13.682,-2.4876 50.997,-9.9506 82.0927,-16.1698 31.0958,-6.2191 64.6792,-16.1697 75.8736,-19.9013 13.6821,-6.2191 24.8766,4.9754 42.2902,43.5341 l 23.6328,52.2409 50.997,-58.46 c 49.7532,-58.46 50.9971,-58.46 145.5281,-65.923 l 94.5311,-7.4629 8.7068,58.4599 c 4.9754,31.0957 12.4383,59.7038 17.4136,63.4354 4.9754,2.4876 28.6081,-21.1452 53.4847,-53.4847 36.0711,-48.5094 57.2162,-63.4354 123.1392,-87.0681 43.534,-14.926 83.3366,-27.3643 87.068,-27.3643 4.9754,0 23.6328,23.6328 43.5341,53.4847 28.6081,41.0464 37.3149,70.8983 42.2902,139.309 l 6.2192,87.068 41.0464,-55.9723 c 34.8272,-47.2655 54.7285,-60.9477 124.383,-84.5804 92.0433,-31.0958 238.8153,-54.7286 238.8153,-37.315 0,16.1698 -36.0711,84.5805 -44.7779,84.5805 -3.7315,0 -4.9754,-12.4383 -2.4877,-27.3642 2.4877,-19.9013 -1.2438,-27.3643 -14.9259,-23.6329 -9.9506,2.4877 -39.8026,8.7068 -64.6792,14.9261 -54.7285,13.682 -221.4017,97.0187 -221.4017,111.9446 0,4.9753 4.9754,12.4384 11.1945,16.1698 11.1945,7.463 37.3149,130.6021 41.0463,196.5252 2.4877,19.9012 6.2192,34.8272 9.9507,34.8272 3.7315,0 8.7068,14.9259 9.9506,32.3395 1.2439,18.6575 11.1945,60.9477 21.1452,95.7749 9.9505,34.8273 18.6573,78.3613 18.6573,98.2626 0,41.0464 31.0958,59.7038 55.9724,33.5834 9.9507,-9.9507 28.6081,-93.2872 42.2902,-185.3307 34.8273,-222.6455 37.3149,-238.8153 46.0217,-263.6919 2.4877,-11.1944 8.7069,-32.3395 11.1945,-46.0216 12.4383,-64.6792 27.3643,-62.1915 21.1451,3.7314 -3.7314,46.0217 0,75.8736 9.9506,88.3119 14.9261,17.4136 23.6329,13.6821 73.386,-34.8272 49.7532,-47.2656 73.386,-59.7038 177.8677,-88.3119 118.1638,-31.0957 299.763,-44.7779 312.2013,-23.6328 3.7315,6.2192 1.2438,22.3889 -3.7314,36.0711 -8.7069,22.3889 -27.3643,29.8519 -101.9942,42.2902 -73.3858,12.4382 -98.2625,22.3889 -131.8459,54.7285 -39.8025,36.071 -84.5804,104.4817 -74.6298,113.1885 2.4876,2.4876 79.6052,-26.1204 171.6485,-63.4353 228.8647,-92.0435 226.377,-92.0435 174.1362,-36.0711 -44.7779,47.2656 -109.457,92.0435 -78.3613,53.4847 8.7068,-9.9506 12.4383,-21.1451 8.7068,-24.8766 -8.7068,-8.7068 -194.0375,62.1915 -211.4511,80.849 -7.4629,8.7068 -28.608,50.997 -48.5093,95.7749 -18.6574,44.7779 -38.5588,83.3365 -43.534,87.0681 -4.9754,3.7314 -18.6575,24.8766 -29.852,46.0217 l -19.9013,41.0464 38.5588,-4.9754 c 26.1204,-2.4876 48.5094,-17.4136 70.8983,-46.0217 18.6574,-23.6328 37.3149,-43.534 42.2902,-46.0217 6.2191,-2.4877 9.9506,-11.1945 9.9506,-18.6574 0,-8.7068 18.6575,-34.8273 41.0464,-58.46 22.389,-23.6328 48.5094,-54.7285 55.9724,-68.4107 13.6822,-23.6328 13.6822,-22.3889 14.9259,8.7068 v 34.8272 l 119.4077,-43.534 c 119.4076,-42.2902 119.4076,-42.2902 90.7995,-11.1944 -16.1697,16.1697 -36.0709,27.3642 -44.7777,24.8766 -19.9014,-8.7069 -177.8677,62.1915 -177.8677,78.3612 0,6.2191 -23.6329,41.0464 -52.2409,77.1175 -28.6081,37.3149 -53.4847,77.1174 -53.4847,88.3119 -1.2438,12.4383 -1.2438,22.389 1.2439,22.389 1.2437,0 36.071,-33.5835 77.1174,-73.386 65.9229,-64.6792 84.5804,-75.8736 148.0157,-88.3119 39.8025,-7.463 82.0928,-17.4137 94.5311,-19.9014 41.0464,-12.4382 21.1451,6.2193 -49.7532,43.5341 -38.5588,21.1451 -83.3366,38.5588 -99.5064,38.5588 -19.9012,0 -46.0216,18.6574 -75.8736,52.2408 -24.8766,28.6081 -93.2873,97.0187 -151.7473,151.7473 -197.7689,189.0621 -317.1766,308.4698 -298.5191,298.5191 9.9506,-4.9753 64.6792,-39.8026 121.8953,-75.8736 55.9724,-36.0711 101.9941,-62.1915 101.9941,-58.46 0,3.7315 -33.5835,50.997 -75.8737,105.7255 -54.7284,72.1422 -109.457,124.383 -201.5004,194.0375 -69.6545,52.2408 -143.0405,108.2132 -162.9417,124.383 -52.2408,43.534 -189.0622,252.4974 -245.0345,371.9051 l -47.2655,104.4818 131.8459,108.2131 c 129.3583,106.9694 263.692,257.4728 451.5103,504.995 62.1915,80.8489 98.2625,115.6762 154.2349,146.7719 159.2102,90.7996 228.8647,128.1144 309.7136,167.917 46.0218,23.6327 83.3366,47.2656 83.3366,53.4847 0,29.8518 -42.2902,50.997 -103.2379,52.2408 -104.4817,3.7315 -208.9634,-2.4876 -237.5715,-12.4383 -13.6821,-4.9753 -113.1885,-6.2191 -218.914,-2.4876 -254.9852,9.9506 -349.5162,-11.1945 -654.2546,-148.0158 -103.2378,-46.0217 -210.2072,-88.312 -238.8152,-93.2872 l -49.7533,-7.463 -12.4382,72.1422 c -13.6822,80.8488 -11.1945,84.5804 58.4599,97.0187 50.997,9.9505 63.4354,23.6327 63.4354,73.3859 0,36.0711 64.6792,111.9448 154.2348,179.1115 41.0465,31.0957 58.4601,92.0434 39.8026,143.0405 -11.1945,28.608 -4.9753,57.2161 33.5834,167.9169 46.0218,133.0898 109.4571,353.2477 101.994,360.7107 -1.2437,2.4877 -21.145,-53.4846 -43.534,-124.3829 -23.6327,-70.8983 -46.0216,-133.0898 -52.2409,-139.309 -4.9752,-7.463 -9.9506,-22.3889 -9.9506,-34.8273 0,-12.4382 -4.9753,-32.3395 -12.4382,-44.7777 -6.2192,-11.1945 -26.1205,-54.7286 -44.7779,-95.775 -39.8026,-88.312 -116.9201,-205.2319 -136.8214,-205.2319 -23.6327,0 -39.8025,53.4847 -26.1204,84.5804 8.7068,18.6575 8.7068,36.0711 0,55.9724 -9.9505,21.145 -7.463,34.8272 8.7068,58.4599 19.9013,29.852 121.8954,293.5439 130.6022,338.3218 9.9506,48.5093 59.7038,171.6485 75.8736,185.3307 9.9507,7.4629 17.4136,21.145 17.4136,29.8518 0,7.463 18.6575,33.5834 41.0464,57.2163 57.2162,58.4599 75.8737,39.8025 65.923,-67.1669 l -6.2191,-77.1174 24.8766,74.6298 23.6327,73.3859 -47.2656,48.5094 -48.5093,48.5093 -49.7531,-48.5093 c -60.9478,-58.4601 -70.8983,-75.8737 -95.775,-177.8677 -24.8766,-97.0187 -120.6515,-375.6366 -128.1145,-369.4175 -2.4876,3.7316 39.8027,185.3307 95.7749,404.2447 54.7286,220.1579 99.5065,406.7324 99.5065,415.4393 0,8.7068 -14.926,33.5833 -32.3397,53.4846 -22.3889,26.1205 -28.608,29.8519 -22.3889,12.4383 17.4136,-48.5093 9.9507,-110.7008 -31.0957,-261.2043 -12.4383,-47.2655 -26.1204,-106.9693 -31.0958,-130.6021 -7.4629,-50.997 -34.8272,-164.1856 -62.1915,-263.6919 -19.9013,-74.6299 -33.5834,-135.5775 -37.3149,-177.8677 -3.7314,-37.3149 -32.3396,-167.9171 -47.2655,-220.1579 -13.6822,-44.7779 -14.9259,-46.0217 -31.0958,-22.3889 -9.9505,13.6821 -26.1204,24.8766 -34.8272,24.8766 -13.6821,0 -17.4136,16.1698 -17.4136,60.9476 1.2438,42.2902 -8.7068,80.849 -33.5834,135.5774 -34.8272,72.1422 -36.0711,74.6299 -13.6821,89.5558 13.6821,7.463 21.145,17.4136 17.4136,21.1452 -3.7315,3.7314 3.7314,26.1204 16.1698,50.997 13.6821,26.1204 26.1204,59.7038 29.8518,77.1174 3.7316,17.4136 13.6822,62.1915 23.6329,99.5064 9.9506,37.3149 22.3889,90.7996 26.1204,118.1638 8.7068,55.9724 17.4136,99.5064 19.9013,99.5064 1.2438,0 3.7314,21.1452 7.463,48.5094 9.9506,93.2872 118.1638,268.6672 166.6732,268.6672 7.4629,0 12.4382,9.9507 9.9506,22.3889 -3.7315,14.9261 -14.926,19.9013 -39.8026,18.6575 -57.2161,-3.7314 -85.8242,-32.3395 -139.3089,-135.5774 -46.0217,-87.0681 -53.4847,-116.92 -72.1422,-253.7413 -17.4136,-141.7966 -79.6051,-373.149 -108.2131,-403.0008 -6.2192,-7.4631 -11.1945,8.7068 -11.1945,38.5586 0,28.6081 -4.9754,54.7286 -11.1945,59.7038 -12.4382,6.2193 -8.7068,-100.7501 4.9754,-192.7936 3.7314,-23.6327 8.7068,-72.142 12.4382,-106.9694 l 4.9754,-62.1914 -37.3149,4.9753 c -33.5834,4.9753 -43.5341,16.1698 -69.6545,75.8736 -17.4136,38.5587 -32.3396,78.3613 -33.5835,88.3119 -1.2437,18.6575 -23.6327,57.2162 -72.142,128.1145 -21.1452,29.8519 -23.6329,47.2655 -16.1698,103.2379 3.7314,37.3149 13.6821,67.1668 19.9012,67.1668 6.2192,0 9.9507,3.7315 8.7068,9.9506 -1.2438,4.9754 2.4877,31.0958 8.7068,58.4601 24.8766,126.8706 27.3643,148.0157 37.3149,273.6425 12.4384,175.38 29.852,216.4264 133.0899,318.4205 18.6574,17.4136 29.8519,36.071 26.1204,41.0463 -11.1945,11.1945 -38.5588,8.7068 -43.5341,-3.7314 z m -866.9493,-352.0039 c 8.7068,-16.1698 19.9012,-31.0957 24.8765,-34.8272 4.9753,-3.7316 27.3643,-43.5341 48.5093,-87.0681 75.8737,-157.9664 113.1886,-226.377 130.6022,-243.7906 8.7068,-9.9507 21.1451,-29.852 26.1204,-46.0218 7.4631,-24.8765 37.3149,-67.1667 120.6516,-175.38 14.9259,-19.9013 33.5834,-42.2902 39.8025,-49.7532 7.4629,-7.463 33.5834,-38.5587 58.4599,-69.6545 24.8767,-31.0957 59.704,-72.142 77.1176,-92.0434 39.8025,-44.7778 41.0463,-57.2162 1.2438,-57.2162 -17.4136,0 -31.0958,4.9754 -31.0958,11.1945 0,9.9507 -115.6762,83.3367 -155.4787,99.5064 -6.2192,2.4876 -14.926,8.7069 -18.6574,12.4383 -3.7316,4.9754 -33.5834,24.8767 -67.1668,43.534 -64.6792,37.3149 -99.5064,65.9231 -192.7936,155.4788 -31.0958,31.0957 -68.4108,55.9723 -82.0929,57.2162 -32.3395,2.4876 -41.0463,47.2655 -48.5094,262.448 -6.2191,174.1363 4.9754,241.3031 38.5588,241.3031 8.7068,0 22.3889,-12.4384 29.852,-27.3643 z m -231.3524,-381.8558 c 21.145,-12.4382 93.2872,-78.3613 161.6979,-145.5281 68.4106,-68.4106 175.38,-156.7225 236.3277,-197.769 62.1915,-41.0463 114.4323,-78.3612 115.676,-83.3365 2.4877,-6.2191 12.4384,-9.9507 22.389,-9.9507 9.9507,0 17.4137,-4.9752 17.4137,-12.4382 0,-6.2192 7.4629,-12.4383 17.4136,-12.4383 18.6574,0 52.2408,-34.8273 42.2902,-44.7779 -3.7315,-2.4877 -31.0957,0 -60.9477,7.4629 -29.8519,7.463 -67.1668,16.1698 -83.3365,19.9013 -16.1699,2.4877 -49.7533,13.6821 -74.6299,22.3889 -24.8766,9.9507 -84.5804,29.852 -133.0898,44.7779 -47.2655,16.1698 -89.5558,31.0958 -93.2872,36.0711 -3.7315,3.7315 -17.4136,13.6822 -31.0958,21.1452 -103.2378,54.7285 -118.1638,64.679 -190.3059,126.8705 -18.6575,14.9261 -43.5341,31.0958 -54.7286,34.8273 -47.2654,14.926 4.9754,216.4264 55.9724,216.4264 8.7068,0 32.3396,-11.1945 52.2409,-23.6328 z m -93.2872,-302.2506 c 13.682,-12.4383 28.608,-22.389 32.3395,-22.389 3.7314,0 24.8766,-13.6821 47.2655,-31.0957 50.9971,-38.5588 187.8183,-105.7255 305.9822,-149.2596 210.2072,-78.3613 105.7256,-98.2626 -211.4511,-41.0463 -126.8707,22.3889 -323.3957,92.0433 -323.3957,114.4323 0,17.4136 43.534,115.6761 58.4599,133.0897 21.1451,24.8767 58.46,23.6329 90.7997,-3.7314 z M 2735.812,4699.705 c 69.6544,-29.8519 202.7442,-63.4353 302.2506,-75.8735 48.5094,-6.2193 50.9971,-24.8766 8.7068,-57.2163 -37.3148,-27.3642 -47.2655,-28.6081 -151.7472,-22.3889 -106.9694,7.463 -250.0098,26.1205 -294.7877,39.8025 -18.6575,4.9754 -18.6575,11.1945 -3.7315,55.9724 18.6574,49.7532 18.6574,52.2409 18.6574,73.3859 0,19.9013 55.9724,13.6822 120.6516,-13.6821 z m 1315.9719,-501.2634 c 34.8273,-18.6575 60.9477,-17.4136 69.6545,3.7315 4.9753,13.6821 12.4384,11.1944 33.5834,-11.1945 14.9259,-16.1697 27.3643,-33.5834 27.3643,-38.5587 0,-13.6821 -69.6545,-22.3889 -118.1638,-14.926 -34.8273,4.9753 -50.9971,2.4877 -60.9478,-11.1945 -12.4382,-17.4136 -69.6544,-33.5833 -207.7195,-59.7038 -59.7038,-11.1945 -151.7473,-52.2408 -186.5745,-83.3365 -11.1944,-8.7068 -24.8766,-16.1699 -31.0957,-13.6822 -16.1698,3.7315 -129.3583,-41.0464 -129.3583,-52.2409 0,-4.9752 -13.6822,-14.9259 -31.0958,-22.3888 -36.0711,-17.4137 -31.0957,-12.4384 -155.4787,-116.9201 -103.2379,-87.0681 -135.5775,-120.6515 -136.8214,-143.0404 0,-8.7069 -4.9752,-16.1698 -12.4382,-16.1698 -6.2191,0 -12.4383,-12.4384 -12.4383,-26.1204 0,-26.1205 -27.3643,-57.2163 -83.3366,-94.5311 -23.6328,-16.1698 -28.6081,-62.1915 -4.9754,-47.2656 7.463,3.7316 8.7068,-43.534 1.2439,-52.2408 -3.7314,-4.9753 -8.7068,-24.8766 -11.1945,-41.0464 0,-6.2192 -19.9012,-12.4383 -43.5341,-12.4383 -39.8025,0 -42.2901,2.4877 -37.3148,34.8272 2.4876,18.6575 11.1944,47.2656 17.4136,64.6792 6.2192,17.4136 13.6821,43.5341 16.1698,57.2161 3.7314,27.3643 42.2902,80.849 115.6762,161.698 22.3889,24.8765 44.7779,55.9723 49.7532,70.8983 11.1945,34.8272 179.1115,208.9634 262.4481,271.1549 34.8272,26.1204 90.7996,60.9476 124.383,75.8736 32.3395,16.1698 62.1915,32.3396 65.9229,36.071 12.4383,14.9261 84.5805,47.2656 90.7996,41.0465 3.7315,-3.7315 18.6575,0 33.5834,7.463 37.3149,19.9013 67.1669,24.8765 167.917,31.0957 47.2656,2.4876 88.312,11.1944 90.7997,17.4136 4.9752,14.926 55.9722,6.2192 95.7748,-16.1698 z m 309.7137,-610.7204 c 33.5834,1.2437 55.9723,-4.9754 70.8983,-19.9013 13.6821,-13.6822 31.0957,-23.6329 39.8025,-23.6329 29.852,0 75.8736,-60.9476 77.1175,-103.2378 1.2438,-22.3889 17.4136,-73.3859 34.8272,-111.9447 17.4136,-38.5587 28.6081,-70.8983 23.6328,-70.8983 -4.9754,0 -27.3642,11.1945 -48.5094,24.8766 -22.3889,13.6822 -41.0463,21.1451 -41.0463,17.4136 0,-4.9753 -7.463,-2.4876 -14.926,3.7315 -18.6574,13.6821 -135.5775,12.4383 -159.2102,-2.4876 -14.926,-8.7069 -74.6299,-26.1205 -130.6021,-37.315 -13.6822,-2.4876 -44.7779,-11.1944 -68.4108,-17.4136 -196.525,-55.9723 -223.8893,-62.1915 -345.7846,-70.8983 -52.2408,-4.9753 -95.7749,-2.4876 -105.7255,3.7315 -7.463,7.463 -27.3643,11.1945 -42.2902,9.9507 -16.1699,-1.2439 -28.6081,2.4877 -28.6081,8.7068 0,6.2191 -4.9754,8.7068 -11.1945,3.7314 -6.2192,-3.7314 -19.9013,2.4877 -29.852,12.4384 -13.6821,12.4383 -44.7778,18.6574 -110.7008,17.4136 -106.9694,-1.2439 -192.7936,16.1698 -248.766,50.997 -22.3889,13.6822 -49.7532,24.8766 -60.9477,24.8766 -28.608,0 -124.383,115.6762 -108.2131,130.6022 2.4876,2.4876 34.8272,6.2191 72.142,7.463 37.315,1.2438 85.8244,7.4629 105.7256,13.682 21.1451,6.2192 68.4107,13.6822 105.7255,14.926 37.315,2.4877 100.7503,8.7068 140.5528,12.4383 38.5588,3.7315 100.7503,9.9507 136.8213,13.6821 34.8273,3.7315 85.8243,12.4383 110.7009,17.4136 24.8765,6.2192 48.5094,7.4631 52.2408,3.7315 19.9013,-18.6574 126.8707,-1.2438 237.5715,39.8027 21.1452,7.4629 39.8026,13.682 43.5341,14.9259 3.7315,0 17.4136,4.9753 31.0958,9.9506 108.2131,41.0464 130.6021,43.5341 180.3552,18.6575 23.6328,-11.1945 65.9231,-19.9013 92.0435,-17.4136 z M 5126.453,2210.8014 c 16.1698,-12.4382 33.5834,-18.6574 38.5586,-16.1697 4.9754,3.7315 27.3643,-34.8273 49.7533,-84.5804 23.6327,-48.5094 46.0216,-92.0435 50.997,-95.7749 6.2191,-3.7315 23.6328,-38.5588 41.0464,-75.8737 16.1697,-38.5587 62.1915,-104.4817 100.7502,-145.528 39.8025,-42.2902 63.4353,-78.3613 55.9723,-83.3367 -6.2191,-3.7314 -12.4382,-3.7314 -12.4382,2.4877 0,4.9754 -14.9261,11.1945 -33.5835,11.1945 -70.8982,3.7314 -273.6425,79.6051 -278.6179,103.2378 -1.2438,3.7316 -2.4877,43.5341 -4.9753,88.312 -2.4876,44.7779 -7.4629,111.9446 -12.4383,149.2596 -4.9753,37.3149 -9.9506,77.1174 -11.1945,89.5557 -1.2437,11.1945 -8.7068,27.3643 -16.1698,37.3149 -37.3148,48.5094 -22.3889,58.46 32.3397,19.9012 z m -340.8095,-22.3888 c 8.7068,-27.3643 -12.4382,-205.232 -29.8518,-250.0099 -6.2193,-17.4136 -14.9261,-62.1915 -19.9013,-99.5063 -6.2192,-62.1915 -23.6328,-166.6732 -33.5834,-210.2073 -12.4384,-55.9723 -92.0435,-78.3613 -157.9664,-44.7778 -58.4601,31.0957 -65.9231,47.2654 -44.7779,105.7255 9.9506,27.3643 13.6821,50.997 8.7068,50.997 -4.9753,0 -2.4877,4.9753 3.7315,9.9507 7.463,4.9752 19.9012,36.071 28.608,68.4106 18.6575,74.6297 38.5588,119.4076 95.7749,213.9386 42.2903,70.8984 68.4108,123.1393 84.5805,170.4048 8.7068,26.1204 54.7286,16.1698 64.6791,-14.9259 z m -230.1084,-44.7779 c 0,-9.9507 -11.1945,-43.5341 -24.8767,-74.6299 -39.8025,-87.0681 -53.4847,-121.8953 -52.2409,-131.8459 1.2439,-6.2192 -2.4875,-9.9506 -9.9506,-9.9506 -6.2191,0 -12.4382,-12.4383 -12.4382,-28.6081 0,-16.1698 -3.7316,-33.5834 -8.7069,-38.5588 -4.9753,-3.7314 -9.9506,-14.9259 -12.4383,-23.6327 -2.4876,-8.7068 -13.6821,-52.2409 -26.1204,-98.2626 l -21.1451,-83.3365 -43.534,3.7314 c -148.0157,14.9259 -171.6486,32.3395 -136.8214,97.0187 12.4384,24.8766 19.9014,48.5094 16.1698,52.2409 -4.9753,3.7315 -1.2437,7.4629 6.2192,7.4629 8.7068,0 14.926,11.1945 14.926,23.6329 0,36.0711 73.386,140.5528 177.8677,253.7413 24.8765,28.608 46.0216,54.7285 46.0216,59.7038 0,9.9506 62.1915,21.1451 78.3614,13.6821 4.9752,-2.4876 8.7068,-12.4383 8.7068,-22.3889 z m -258.7167,-23.6328 c -2.4877,-12.4383 -17.4136,-39.8026 -33.5834,-60.9476 -31.0958,-41.0465 -72.1421,-114.4324 -138.0651,-246.2783 -23.6328,-46.0218 -52.2408,-84.5805 -64.6791,-87.0681 -27.3643,-6.2192 -121.8954,24.8766 -139.309,46.0216 -16.1697,18.6575 9.9507,69.6545 93.2872,186.5745 87.0681,119.4076 111.9447,143.0405 181.5993,166.6732 80.8488,28.6081 105.7254,27.3643 100.7501,-4.9753 z"
       id="path8"
       inkscape:connector-curvature="0"
       style="stroke-width:1.24382985" />
  </g>
</svg>
